<?xml version="1.0" encoding="utf-8"?>
<!-- Generator: Adobe Illustrator 27.5.0, SVG Export Plug-In . SVG Version: 6.00 Build 0)  -->
<svg version="1.1" xmlns="http://www.w3.org/2000/svg" xmlns:xlink="http://www.w3.org/1999/xlink" x="0px" y="0px"
	 viewBox="0 0 250 650" enable-background="new 0 0 250 650" xml:space="preserve">
<g id="Capa_1" display="none">
	<g display="inline">
		<path d="M90.03,116.78c-0.83-0.36-1.72-0.61-2.57-0.92"/>
		<path d="M97.74,86.85c2.78-1.44,4.75-3.56,5.72-6.57c0.3-0.17,0.62-0.2,0.75,0l10.63,34.87c0.49,0.8,0.4,1.25-0.29,1.76
			c-2.05,1.51-4.29,2.49-6.86,2.66c-3.41,0.24-6.79,0.15-10.14-0.61l-19.7-5.3c-5.07-1.06-10.13-2.15-15.18-3.28l-0.61-2.76"/>
	</g>
</g>
<g id="Capa_2">
	<polyline points="62.69,110.37 62.08,107.61 98.16,86.62 103.46,80.28 104.45,80.52 115,115.42 108.03,119.54 	"/>
</g>
</svg>
